PathFileType	4	(X/Y/Z)	/Users/itak/Documents/Research/Walk-IL/dataset/trc/00366_00011.trc
DataRate	CameraRate	NumFrames	NumMarkers	Units	OrigDataRate	OrigDataStartFrame	OrigNumFrames
100.000000	100.000000	4	56	mm	100.000000	49	392
Frame#	Time	RPSI			LPSI			L3			STRN			T10			C7			CLAV			RBAK			LBAK			LSHO			LUPA			LAEL			LAOL			LWPS			LFRA			LIFD			LHPS			LHTS			RSHO			RUPA			RAEL			RAOL			RWTS			RWPS			RFRA			RIFD			RHTS			RHPS			RBHD			LFHD			RFHD			LBHD			LHIP			RHIP			RASI			LASI			LKNE			LTHI			LANK			LTIP			LTOE			LMT1			LMT5			LHEE			RKNE			RTHI			RANK			RTIP			RTOE			RMT1			RMT5			RHEE			LWTS			*53			*54			*55			
		X1	Y1	Z1	X2	Y2	Z2	X3	Y3	Z3	X4	Y4	Z4	X5	Y5	Z5	X6	Y6	Z6	X7	Y7	Z7	X8	Y8	Z8	X9	Y9	Z9	X10	Y10	Z10	X11	Y11	Z11	X12	Y12	Z12	X13	Y13	Z13	X14	Y14	Z14	X15	Y15	Z15	X16	Y16	Z16	X17	Y17	Z17	X18	Y18	Z18	X19	Y19	Z19	X20	Y20	Z20	X21	Y21	Z21	X22	Y22	Z22	X23	Y23	Z23	X24	Y24	Z24	X25	Y25	Z25	X26	Y26	Z26	X27	Y27	Z27	X28	Y28	Z28	X29	Y29	Z29	X30	Y30	Z30	X31	Y31	Z31	X32	Y32	Z32	X33	Y33	Z33	X34	Y34	Z34	X35	Y35	Z35	X36	Y36	Z36	X37	Y37	Z37	X38	Y38	Z38	X39	Y39	Z39	X40	Y40	Z40	X41	Y41	Z41	X42	Y42	Z42	X43	Y43	Z43	X44	Y44	Z44	X45	Y45	Z45	X46	Y46	Z46	X47	Y47	Z47	X48	Y48	Z48	X49	Y49	Z49	X50	Y50	Z50	X51	Y51	Z51	X52	Y52	Z52	X53	Y53	Z53	X54	Y54	Z54	X55	Y55	Z55	X56	Y56	Z56	

50	0.49	-1313.469848632812	963.6380615234375	-87.65325927734375	-1310.869262695312	975.2214965820312	-217.6779174804688	-1310.717163085938	1033.646484375	-151.4041137695312	-1073.892944335938	1206.882568359375	-157.8932037353516	-1314.639892578125	1153.014770507812	-166.6001434326172	-1259.855224609375	1398.681396484375	-189.1195068359375	-1108.031005859375	1334.939331054688	-168.3048400878906	-1319.958740234375	1264.612548828125	-118.8886108398438	-1264.415893554688	1358.163940429688	-290.7239379882812	-1172.673950195312	1370.385498046875	-339.1832885742188	-1185.945434570312	1248.549438476562	-405.5096130371094	-1168.17431640625	1043.801025390625	-413.3729858398438	-1239.6611328125	1031.374145507812	-370.3423156738281	-1113.80517578125	788.6651611328125	-409.1019897460938	-1151.991455078125	939.4609375	-415.6922912597656	-1090.233154296875	636.1748657226562	-334.3573913574219	-1121.75390625	718.62890625	-400.4977722167969	-1059.00390625	730.8396606445312	-361.7378540039062	-1215.983032226562	1390.639038085938	-20.63159942626953	-1234.395141601562	1328.96044921875	43.91859817504883	-1242.963989257812	1063.72119140625	91.54965209960938	-1277.202758789062	1055.360717773438	3.088196516036987	-1122.159423828125	841.7628173828125	49.05714416503906	-1161.053955078125	820.8467407226562	114.1521987915039	-1217.726806640625	995.4002075195312	102.3533935546875	-1097.060424804688	667.5358276367188	60.81162261962891	-1088.691284179688	740.3302612304688	63.37644958496094	-1140.796264648438	738.5964965820312	109.6899490356445	-1217.477172851562	1596.5888671875	-98.43704223632812	-1039.492065429688	1609.282348632812	-207.2412261962891	-1055.143188476562	1608.291625976562	-107.2034454345703	-1221.935668945312	1593.7685546875	-243.2386627197266	-1224.530029296875	919.7684326171875	-323.8445129394531	-1232.238037109375	902.9359130859375	17.18372344970703	-1126.801147460938	934.8902587890625	-24.31426620483398	-1102.264404296875	939.61767578125	-262.4496154785156	-1189.69482421875	454.1759643554688	-293.4793395996094	-1183.382080078125	596.3062744140625	-310.6712341308594	-1323.201904296875	46.45752716064453	-246.1060333251953	-1254.22607421875	240.1359710693359	-279.384033203125	-1115.738037109375	49.73297500610352	-192.0813751220703	-1181.763793945312	39.99306106567383	-147.8008880615234	-1196.91064453125	43.7115592956543	-261.6794128417969	-1354.809692382812	44.22553253173828	-176.5013275146484	-1110.176147460938	456.7205200195312	14.89612102508545	-1133.492431640625	702.68896484375	25.67533683776855	-1308.63525390625	88.34719848632812	39.35411834716797	-1140.727416992188	339.1121826171875	21.19960594177246	-1120.074096679688	46.56444549560547	10.13877296447754	-1171.139038085938	39.54358291625977	-36.61001586914062	-1215.41943359375	59.87885284423828	71.10626983642578	-1354.561279296875	93.29441070556641	-13.13029384613037	-1083.938110351562	801.3214721679688	-347.7852478027344	nan	nan	nan	nan	nan	nan	nan	nan	nan	
51	0.5	-1313.035888671875	961.298583984375	-88.71933746337891	-1309.857055664062	973.836181640625	-218.7903442382812	-1310.8525390625	1033.953979492188	-153.166015625	-1071.8125	1205.500122070312	-158.2169647216797	-1313.342651367188	1153.277954101562	-168.3510589599609	-1256.411865234375	1398.460083007812	-191.0572662353516	-1105.1611328125	1333.648681640625	-169.1866912841797	-1317.931884765625	1264.936645507812	-120.8179702758789	-1260.590698242188	1357.716064453125	-292.7492370605469	-1168.279418945312	1369.057861328125	-340.5752258300781	-1181.559814453125	1247.128662109375	-406.7699279785156	-1164.213256835938	1042.296142578125	-415.1654663085938	-1235.810668945312	1029.867309570312	-372.4493713378906	-1110.564208984375	787.1378173828125	-411.2904968261719	-1148.348510742188	937.9451293945312	-417.6687927246094	-1087.414794921875	634.3248901367188	-336.9700927734375	-1118.696655273438	717.1541748046875	-402.8248596191406	-1055.763305664062	729.2086181640625	-364.1174621582031	-1213.399169921875	1390.240478515625	-22.10116767883301	-1232.476928710938	1328.55419921875	42.30641555786133	-1242.447509765625	1063.291259765625	89.81578063964844	-1276.383911132812	1055.097900390625	1.163583755493164	-1122.54931640625	840.6712646484375	48.30865859985352	-1162.47216796875	819.6948852539062	113.2567138671875	-1217.744873046875	994.8435668945312	100.7797241210938	-1097.689575195312	666.78955078125	60.42829132080078	-1089.337036132812	739.697509765625	63.64353561401367	-1142.146728515625	737.826171875	108.8680572509766	-1214.0400390625	1595.456420898438	-99.91770935058594	-1035.406494140625	1608.408813476562	-207.5970458984375	-1051.700073242188	1607.27392578125	-107.6600723266602	-1217.641357421875	1592.850830078125	-244.7307891845703	-1222.695068359375	919.2848510742188	-324.8226318359375	-1231.31884765625	901.344970703125	16.10974884033203	-1125.9765625	934.3966674804688	-24.79151725769043	-1100.63671875	939.4593505859375	-262.9706115722656	-1188.542846679688	454.0774230957031	-294.4529418945312	-1181.943603515625	596.2188110351562	-311.7358703613281	-1323.26513671875	46.25783538818359	-246.3690948486328	-1253.750122070312	239.9686889648438	-280.1278381347656	-1115.858276367188	49.80546951293945	-192.3260955810547	-1181.86669921875	40.31927490234375	-147.9959564208984	-1196.909423828125	43.48122787475586	-261.9376525878906	-1354.8544921875	44.46121597290039	-176.680419921875	-1099.55224609375	458.8870544433594	12.71129417419434	-1129.84765625	702.2440795898438	24.29789543151855	-1305.674194335938	94.58412170410156	35.22800445556641	-1131.701293945312	341.3018493652344	18.43972206115723	-1118.0986328125	46.6849365234375	8.590919494628906	-1168.873168945312	40.53619384765625	-38.63022994995117	-1213.978271484375	63.46871185302734	68.21775817871094	-1350.818481445312	100.6032638549805	-17.86102485656738	-1080.509521484375	799.6104736328125	-350.0413208007812	nan	nan	nan	nan	nan	nan	nan	nan	nan	
52	0.51	-1312.298706054688	959.5137939453125	-89.75631713867188	-1308.64404296875	972.693603515625	-219.8698883056641	-1310.896240234375	1034.396240234375	-154.8502960205078	-1069.51953125	1204.406494140625	-158.4180145263672	-1311.883056640625	1153.615478515625	-170.1200408935547	-1252.97119140625	1398.326538085938	-192.9548645019531	-1102.251831054688	1332.58056640625	-169.982177734375	-1315.795776367188	1265.33056640625	-122.7432556152344	-1256.706176757812	1357.351806640625	-294.7221069335938	-1163.848999023438	1367.899780273438	-341.88818359375	-1177.039794921875	1245.849243164062	-407.917724609375	-1160.0380859375	1040.958374023438	-416.7132873535156	-1231.7529296875	1028.517700195312	-374.3439025878906	-1107.126586914062	785.794677734375	-413.3369140625	-1144.47705078125	936.612060546875	-419.4213256835938	-1084.38720703125	632.6766357421875	-339.5771179199219	-1115.449096679688	715.8555908203125	-405.0742492675781	-1052.34130859375	727.7601928710938	-366.3765258789062	-1210.845092773438	1390.02587890625	-23.54238891601562	-1230.588256835938	1328.362426757812	40.72929763793945	-1241.96533203125	1063.065551757812	88.03469848632812	-1275.504638671875	1055.081909179688	-0.8466170430183411	-1123.048950195312	839.7150268554688	47.80798721313477	-1164.162841796875	818.7243041992188	112.3370666503906	-1217.860107421875	994.5137939453125	99.17999267578125	-1098.486572265625	666.2269287109375	60.22927474975586	-1090.080322265625	739.3477783203125	64.28253173828125	-1143.847778320312	737.1777954101562	108.0560073852539	-1210.461669921875	1594.554077148438	-101.3672561645508	-1031.160034179688	1607.55224609375	-207.8766784667969	-1048.109252929688	1606.32470703125	-108.0584945678711	-1213.189453125	1592.109985351562	-246.1868591308594	-1220.81298828125	918.7906494140625	-325.7249755859375	-1230.165771484375	900.4440307617188	15.15052509307861	-1124.927124023438	934.3548583984375	-25.33266830444336	-1098.91650390625	939.3804931640625	-263.5322265625	-1187.380126953125	453.9985656738281	-295.1802368164062	-1180.533813476562	596.0931396484375	-312.4955444335938	-1323.322998046875	46.08211135864258	-246.5949249267578	-1253.284301757812	239.8455963134766	-280.7417602539062	-1115.963012695312	49.85176849365234	-192.5403900146484	-1181.918334960938	40.6010627746582	-148.1759948730469	-1196.898559570312	43.27766418457031	-262.1539306640625	-1354.896362304688	44.72418212890625	-176.8450775146484	-1089.125732421875	461.4568176269531	10.74645519256592	-1126.00244140625	702.4743041992188	23.04042816162109	-1301.981567382812	100.8339080810547	30.87281608581543	-1122.5537109375	343.8648071289062	15.6821174621582	-1115.377075195312	47.11454010009766	6.406148433685303	-1165.974365234375	42.01800155639648	-41.21601104736328	-1211.711547851562	67.21637725830078	64.86293029785156	-1346.390991210938	107.8704833984375	-22.71182823181152	-1076.93701171875	798.0097045898438	-352.1126403808594	nan	nan	nan	nan	nan	nan	nan	nan	nan	
53	0.52	-1311.2041015625	958.3491821289062	-90.74567413330078	-1307.206787109375	971.8367309570312	-220.8995513916016	-1310.76806640625	1034.89013671875	-156.4102630615234	-1067.016479492188	1203.61669921875	-158.5320281982422	-1310.251342773438	1154.018188476562	-171.9107055664062	-1249.543823242188	1398.276611328125	-194.8073120117188	-1099.308471679688	1331.758666992188	-170.7041320800781	-1313.525634765625	1265.773071289062	-124.6619567871094	-1252.773193359375	1357.078735351562	-296.6292724609375	-1159.414794921875	1366.953369140625	-343.1250610351562	-1172.409057617188	1244.76171875	-408.9671325683594	-1155.655151367188	1039.839599609375	-418.001953125	-1227.495727539062	1027.379638671875	-376.0056457519531	-1103.479125976562	784.6871948242188	-415.21826171875	-1140.36572265625	935.5149536132812	-420.9270324707031	-1081.197265625	631.2683715820312	-342.1396789550781	-1112.01220703125	714.7860107421875	-407.2324829101562	-1048.705810546875	726.5643920898438	-368.4966125488281	-1208.32958984375	1389.995239257812	-24.96071243286133	-1228.737426757812	1328.3896484375	39.18045806884766	-1241.554931640625	1063.054321289062	86.20268249511719	-1274.568359375	1055.317138671875	-2.936912298202515	-1123.589965820312	838.99853515625	47.61089324951172	-1166.0927734375	817.9847412109375	111.3645935058594	-1218.102661132812	994.4154052734375	97.57047271728516	-1099.3837890625	665.8787841796875	60.20686721801758	-1090.8466796875	739.3082275390625	65.23258972167969	-1145.86865234375	736.6685180664062	107.2208786010742	-1206.743286132812	1593.911376953125	-102.7803802490234	-1026.757446289062	1606.699096679688	-208.0813903808594	-1044.3671875	1605.434448242188	-108.4020462036133	-1208.5810546875	1591.575805664062	-247.603515625	-1218.932739257812	918.2864379882812	-326.5623474121094	-1228.749877929688	900.2479248046875	14.30367183685303	-1123.6083984375	934.7438354492188	-25.9816722869873	-1097.112915039062	939.34375	-264.1783752441406	-1186.205322265625	453.9146118164062	-295.6761474609375	-1179.146240234375	595.9014282226562	-312.92626953125	-1323.370849609375	45.94001770019531	-246.7764739990234	-1252.820434570312	239.75830078125	-281.2160949707031	-1116.046264648438	49.86752319335938	-192.7165679931641	-1181.91943359375	40.83160018920898	-148.3356018066406	-1196.877563476562	43.10413360595703	-262.3226928710938	-1354.935913085938	44.99955749511719	-176.9921112060547	-1078.945556640625	464.346923828125	9.011234283447266	-1121.902954101562	703.3969116210938	21.89352416992188	-1297.433349609375	106.8690643310547	26.35542678833008	-1113.31884765625	346.7286682128906	12.95610618591309	-1111.744995117188	47.95111465454102	3.440705060958862	-1162.288940429688	44.0325813293457	-44.45826721191406	-1208.409790039062	70.96984100341797	61.02611923217773	-1341.212890625	114.8711929321289	-27.58234977722168	-1073.22119140625	796.5565185546875	-353.9748229980469	nan	nan	nan	nan	nan	nan	nan	nan	nan	
